# xmcd
#
# Track frame offsets: 
#        150
#        22202
#        48490
#        76737
#        93232
#        118657
#        137595
#        165805
#        185037
#        206602
#        226792
#        248697
#
# Disc length: 3632 seconds
#
# Revision: 5
# Processed by: cddbd v1.5.2PL0 Copyright (c) Steve Scherf et al.
# Submitted via: ExactAudioCopy v0.99pb4
#
DISCID=910e2e0c
DTITLE=Various Artist - Body And Soul - Love Under Cover Disc 1
DYEAR=1999
DGENRE=Soul
TTITLE0=Marvin Gaye - Let's Get It On
TTITLE1=Teddy Pendergrass - Come Go With Me
TTITLE2=Gap Band - Outstanding
TTITLE3=Manhattans - There's No Me Without You
TTITLE4=Enchantment - Gloria
TTITLE5=Deniece Williams - It's Gonna Take A Miracle
TTITLE6=Teena Marie - Ooo La La La
TTITLE7=Midnight Star - Slow Jam
TTITLE8=Smokey Robinson - The Agony And The Ecstasy
TTITLE9=Aretha Franklin - Angel
TTITLE10=Earth Wind And Fire - Devotion
TTITLE11=Cheryl Pepsii Riley - Thanks For My Child
EXTD=
EXTT0=
EXTT1=
EXTT2=
EXTT3=
EXTT4=
EXTT5=
EXTT6=
EXTT7=
EXTT8=
EXTT9=
EXTT10=
EXTT11=
PLAYORDER=
